<mxfile host="Electron" agent="Mozilla/5.0 (Windows NT 10.0; Win64; x64) AppleWebKit/537.36 (KHTML, like Gecko) draw.io/26.0.9 Chrome/128.0.6613.186 Electron/32.2.5 Safari/537.36" version="26.0.9">
  <diagram name="Page-1" id="c4acf3e9-155e-7222-9cf6-157b1a14988f">
    <mxGraphModel dx="1900" dy="621" grid="1" gridSize="10" guides="1" tooltips="1" connect="1" arrows="1" fold="1" page="1" pageScale="1" pageWidth="850" pageHeight="1100" background="none" math="0" shadow="0">
      <root>
        <mxCell id="0" />
        <mxCell id="1" parent="0" />
        <mxCell id="V5mKhU4Q77wbRNJmn_iB-5" value="רישום והתחברות משתמש" style="ellipse;whiteSpace=wrap;html=1;" parent="1" vertex="1">
          <mxGeometry x="25" y="480" width="80" height="70" as="geometry" />
        </mxCell>
        <mxCell id="V5mKhU4Q77wbRNJmn_iB-10" value="&lt;h4&gt;&lt;font style=&quot;font-size: 17px;&quot; face=&quot;DAVID&quot;&gt;המערכת&lt;/font&gt;&lt;/h4&gt;" style="text;html=1;align=center;verticalAlign=middle;whiteSpace=wrap;rounded=0;fontColor=#33001A;" parent="1" vertex="1">
          <mxGeometry x="650" y="60" width="90" height="30" as="geometry" />
        </mxCell>
        <mxCell id="V5mKhU4Q77wbRNJmn_iB-30" value="&lt;span style=&quot;font-weight: normal; line-height: 70%;&quot;&gt;יצירת משתמש&lt;/span&gt;" style="ellipse;whiteSpace=wrap;html=1;strokeColor=default;align=center;verticalAlign=top;fontFamily=Helvetica;fontSize=12;fontColor=default;fillColor=default;fontStyle=1" parent="1" vertex="1">
          <mxGeometry x="175" y="540" width="80" height="60" as="geometry" />
        </mxCell>
        <mxCell id="V5mKhU4Q77wbRNJmn_iB-33" value="התחברות למשתמש" style="ellipse;whiteSpace=wrap;html=1;strokeColor=default;align=center;verticalAlign=top;fontFamily=Helvetica;fontSize=12;fontColor=default;fillColor=default;" parent="1" vertex="1">
          <mxGeometry x="175" y="455" width="90" height="50" as="geometry" />
        </mxCell>
        <mxCell id="V5mKhU4Q77wbRNJmn_iB-34" value="&amp;lt;extends&amp;gt;" style="html=1;verticalAlign=bottom;endArrow=block;rounded=0;fontFamily=Helvetica;fontSize=12;fontColor=default;exitX=0;exitY=0.5;exitDx=0;exitDy=0;entryX=1;entryY=0.5;entryDx=0;entryDy=0;edgeStyle=elbowEdgeStyle;" parent="1" source="V5mKhU4Q77wbRNJmn_iB-33" target="V5mKhU4Q77wbRNJmn_iB-5" edge="1">
          <mxGeometry width="80" relative="1" as="geometry">
            <mxPoint x="115" y="450" as="sourcePoint" />
            <mxPoint x="195" y="450" as="targetPoint" />
          </mxGeometry>
        </mxCell>
        <mxCell id="V5mKhU4Q77wbRNJmn_iB-35" value="&amp;lt;extends&amp;gt;" style="html=1;verticalAlign=bottom;endArrow=block;rounded=0;fontFamily=Helvetica;fontSize=12;fontColor=default;exitX=0;exitY=0.5;exitDx=0;exitDy=0;entryX=1;entryY=0.5;entryDx=0;entryDy=0;edgeStyle=elbowEdgeStyle;elbow=horizontal;" parent="1" source="V5mKhU4Q77wbRNJmn_iB-30" target="V5mKhU4Q77wbRNJmn_iB-5" edge="1">
          <mxGeometry x="-0.12" width="80" relative="1" as="geometry">
            <mxPoint x="85" y="610" as="sourcePoint" />
            <mxPoint x="165" y="610" as="targetPoint" />
            <mxPoint as="offset" />
          </mxGeometry>
        </mxCell>
        <mxCell id="V5mKhU4Q77wbRNJmn_iB-38" value="ניטור אחרי RAM, DISC, CPU" style="ellipse;whiteSpace=wrap;html=1;strokeColor=default;align=center;verticalAlign=top;fontFamily=Helvetica;fontSize=12;fontColor=default;fillColor=default;" parent="1" vertex="1">
          <mxGeometry x="435" y="325" width="110" height="50" as="geometry" />
        </mxCell>
        <mxCell id="V5mKhU4Q77wbRNJmn_iB-41" value="שליחת התראות על פעילות חשודה" style="ellipse;whiteSpace=wrap;html=1;strokeColor=default;align=center;verticalAlign=top;fontFamily=Helvetica;fontSize=12;fontColor=default;fillColor=default;" parent="1" vertex="1">
          <mxGeometry x="570" y="275" width="140" height="40" as="geometry" />
        </mxCell>
        <mxCell id="V5mKhU4Q77wbRNJmn_iB-43" value="זיהוי חבילות&amp;nbsp;&lt;div&gt;אנטרנטיות המיעידים על דפוסי מתקפת סייבר&lt;/div&gt;" style="ellipse;whiteSpace=wrap;html=1;strokeColor=default;align=center;verticalAlign=top;fontFamily=Helvetica;fontSize=12;fontColor=default;fillColor=default;" parent="1" vertex="1">
          <mxGeometry x="397.5" y="240" width="122.5" height="60" as="geometry" />
        </mxCell>
        <mxCell id="V5mKhU4Q77wbRNJmn_iB-48" value="&amp;lt;include&amp;gt;" style="html=1;verticalAlign=bottom;endArrow=block;rounded=0;fontFamily=Helvetica;fontSize=12;fontColor=default;entryX=1;entryY=0.5;entryDx=0;entryDy=0;edgeStyle=elbowEdgeStyle;exitX=0.5;exitY=1;exitDx=0;exitDy=0;" parent="1" source="V5mKhU4Q77wbRNJmn_iB-38" target="V5mKhU4Q77wbRNJmn_iB-36" edge="1">
          <mxGeometry x="-0.2093" width="80" relative="1" as="geometry">
            <mxPoint x="400" y="360" as="sourcePoint" />
            <mxPoint x="350" y="520" as="targetPoint" />
            <Array as="points">
              <mxPoint x="400" y="390" />
            </Array>
            <mxPoint x="1" as="offset" />
          </mxGeometry>
        </mxCell>
        <mxCell id="V5mKhU4Q77wbRNJmn_iB-57" value="ניטור רשת" style="ellipse;whiteSpace=wrap;html=1;strokeColor=default;align=center;verticalAlign=top;fontFamily=Helvetica;fontSize=12;fontColor=default;fillColor=default;" parent="1" vertex="1">
          <mxGeometry x="200" y="200" width="120" height="40" as="geometry" />
        </mxCell>
        <mxCell id="V5mKhU4Q77wbRNJmn_iB-1" value="&lt;span style=&quot;background-color: rgb(255, 255, 0);&quot;&gt;משתמש&lt;/span&gt;" style="shape=umlActor;verticalLabelPosition=bottom;verticalAlign=top;outlineConnect=0;html=1;gradientColor=none;" parent="1" vertex="1">
          <mxGeometry x="-120" y="435" width="30" height="65" as="geometry" />
        </mxCell>
        <mxCell id="V5mKhU4Q77wbRNJmn_iB-36" value="ניטור משאבים" style="ellipse;whiteSpace=wrap;html=1;strokeColor=default;align=center;verticalAlign=top;fontFamily=Helvetica;fontSize=12;fontColor=default;fillColor=default;" parent="1" vertex="1">
          <mxGeometry x="205" y="375" width="110" height="50" as="geometry" />
        </mxCell>
        <mxCell id="V5mKhU4Q77wbRNJmn_iB-68" value="ניטורי מערכת" style="ellipse;whiteSpace=wrap;html=1;strokeColor=default;align=center;verticalAlign=top;fontFamily=Helvetica;fontSize=12;fontColor=default;fillColor=default;" parent="1" vertex="1">
          <mxGeometry x="25" y="290" width="95" height="40" as="geometry" />
        </mxCell>
        <mxCell id="V5mKhU4Q77wbRNJmn_iB-69" value="&amp;lt;include&amp;gt;" style="html=1;verticalAlign=bottom;endArrow=block;rounded=0;fontFamily=Helvetica;fontSize=12;fontColor=default;exitX=0;exitY=0.5;exitDx=0;exitDy=0;entryX=1;entryY=0.5;entryDx=0;entryDy=0;edgeStyle=elbowEdgeStyle;" parent="1" source="V5mKhU4Q77wbRNJmn_iB-36" target="V5mKhU4Q77wbRNJmn_iB-68" edge="1">
          <mxGeometry x="-0.375" width="80" relative="1" as="geometry">
            <mxPoint x="240" y="420" as="sourcePoint" />
            <mxPoint x="320" y="420" as="targetPoint" />
            <Array as="points">
              <mxPoint x="200" y="350" />
            </Array>
            <mxPoint y="1" as="offset" />
          </mxGeometry>
        </mxCell>
        <mxCell id="V5mKhU4Q77wbRNJmn_iB-70" value="&amp;lt;include&amp;gt;" style="html=1;verticalAlign=bottom;endArrow=block;rounded=0;fontFamily=Helvetica;fontSize=12;fontColor=default;exitX=0;exitY=0.5;exitDx=0;exitDy=0;entryX=1;entryY=0.5;entryDx=0;entryDy=0;edgeStyle=elbowEdgeStyle;elbow=vertical;" parent="1" source="V5mKhU4Q77wbRNJmn_iB-57" target="V5mKhU4Q77wbRNJmn_iB-68" edge="1">
          <mxGeometry x="-0.4118" width="80" relative="1" as="geometry">
            <mxPoint x="240" y="420" as="sourcePoint" />
            <mxPoint x="320" y="420" as="targetPoint" />
            <Array as="points">
              <mxPoint x="160" y="310" />
            </Array>
            <mxPoint y="1" as="offset" />
          </mxGeometry>
        </mxCell>
        <mxCell id="V5mKhU4Q77wbRNJmn_iB-84" value="ניתוח חבילות רשת" style="ellipse;whiteSpace=wrap;html=1;strokeColor=default;align=center;verticalAlign=top;fontFamily=Helvetica;fontSize=12;fontColor=default;fillColor=default;" parent="1" vertex="1">
          <mxGeometry x="200" y="100" width="120" height="40" as="geometry" />
        </mxCell>
        <mxCell id="IxeYVvfEa9ugoxdrenE4-45" style="edgeStyle=orthogonalEdgeStyle;rounded=0;orthogonalLoop=1;jettySize=auto;html=1;entryX=1;entryY=0.5;entryDx=0;entryDy=0;" parent="1" source="V5mKhU4Q77wbRNJmn_iB-97" target="IxeYVvfEa9ugoxdrenE4-41" edge="1">
          <mxGeometry relative="1" as="geometry" />
        </mxCell>
        <mxCell id="V5mKhU4Q77wbRNJmn_iB-97" value="&lt;span style=&quot;background-color: rgb(255, 255, 0);&quot;&gt;שרת&lt;/span&gt;" style="shape=umlActor;verticalLabelPosition=bottom;verticalAlign=top;html=1;outlineConnect=0;strokeColor=default;align=center;fontFamily=Helvetica;fontSize=12;fontColor=default;fillColor=default;" parent="1" vertex="1">
          <mxGeometry x="770" y="125" width="30" height="60" as="geometry" />
        </mxCell>
        <mxCell id="V5mKhU4Q77wbRNJmn_iB-101" value="" style="endArrow=classic;html=1;rounded=0;fontFamily=Helvetica;fontSize=12;fontColor=default;exitX=0.5;exitY=0;exitDx=0;exitDy=0;entryX=1;entryY=0.5;entryDx=0;entryDy=0;edgeStyle=orthogonalEdgeStyle;" parent="1" source="V5mKhU4Q77wbRNJmn_iB-41" target="V5mKhU4Q77wbRNJmn_iB-57" edge="1">
          <mxGeometry width="50" height="50" relative="1" as="geometry">
            <mxPoint x="430" y="250" as="sourcePoint" />
            <mxPoint x="480" y="200" as="targetPoint" />
          </mxGeometry>
        </mxCell>
        <mxCell id="V5mKhU4Q77wbRNJmn_iB-102" value="&amp;lt;include&amp;gt;" style="edgeLabel;html=1;align=center;verticalAlign=middle;resizable=0;points=[];strokeColor=default;fontFamily=Helvetica;fontSize=12;fontColor=default;fillColor=default;" parent="V5mKhU4Q77wbRNJmn_iB-101" vertex="1" connectable="0">
          <mxGeometry x="-0.4007" y="1" relative="1" as="geometry">
            <mxPoint as="offset" />
          </mxGeometry>
        </mxCell>
        <mxCell id="V5mKhU4Q77wbRNJmn_iB-103" value="" style="endArrow=classic;html=1;rounded=0;fontFamily=Helvetica;fontSize=12;fontColor=default;exitX=0.5;exitY=1;exitDx=0;exitDy=0;entryX=0.5;entryY=0;entryDx=0;entryDy=0;" parent="1" source="V5mKhU4Q77wbRNJmn_iB-84" target="V5mKhU4Q77wbRNJmn_iB-57" edge="1">
          <mxGeometry width="50" height="50" relative="1" as="geometry">
            <mxPoint x="270" y="250" as="sourcePoint" />
            <mxPoint x="320" y="200" as="targetPoint" />
          </mxGeometry>
        </mxCell>
        <mxCell id="V5mKhU4Q77wbRNJmn_iB-104" value="&amp;lt;include&amp;gt;" style="edgeLabel;html=1;align=center;verticalAlign=middle;resizable=0;points=[];strokeColor=default;fontFamily=Helvetica;fontSize=12;fontColor=default;fillColor=default;" parent="V5mKhU4Q77wbRNJmn_iB-103" vertex="1" connectable="0">
          <mxGeometry x="-0.137" y="1" relative="1" as="geometry">
            <mxPoint as="offset" />
          </mxGeometry>
        </mxCell>
        <mxCell id="V5mKhU4Q77wbRNJmn_iB-105" value="סינון לפי סוג חבילה&amp;nbsp;" style="ellipse;whiteSpace=wrap;html=1;strokeColor=default;align=center;verticalAlign=top;fontFamily=Helvetica;fontSize=12;fontColor=default;fillColor=default;" parent="1" vertex="1">
          <mxGeometry x="400" y="100" width="110" height="40" as="geometry" />
        </mxCell>
        <mxCell id="V5mKhU4Q77wbRNJmn_iB-106" value="" style="endArrow=classic;html=1;rounded=0;fontFamily=Helvetica;fontSize=12;fontColor=default;exitX=0;exitY=0.5;exitDx=0;exitDy=0;entryX=1;entryY=0.5;entryDx=0;entryDy=0;" parent="1" source="V5mKhU4Q77wbRNJmn_iB-105" target="V5mKhU4Q77wbRNJmn_iB-84" edge="1">
          <mxGeometry width="50" height="50" relative="1" as="geometry">
            <mxPoint x="270" y="250" as="sourcePoint" />
            <mxPoint x="320" y="200" as="targetPoint" />
          </mxGeometry>
        </mxCell>
        <mxCell id="V5mKhU4Q77wbRNJmn_iB-107" value="&amp;lt;extend&amp;gt;" style="edgeLabel;html=1;align=center;verticalAlign=middle;resizable=0;points=[];strokeColor=default;fontFamily=Helvetica;fontSize=12;fontColor=default;fillColor=default;" parent="V5mKhU4Q77wbRNJmn_iB-106" vertex="1" connectable="0">
          <mxGeometry x="-0.0417" relative="1" as="geometry">
            <mxPoint x="-1" as="offset" />
          </mxGeometry>
        </mxCell>
        <mxCell id="IxeYVvfEa9ugoxdrenE4-35" style="edgeStyle=orthogonalEdgeStyle;rounded=0;orthogonalLoop=1;jettySize=auto;html=1;exitX=0.5;exitY=0.5;exitDx=0;exitDy=0;exitPerimeter=0;entryX=1;entryY=0.5;entryDx=0;entryDy=0;movable=1;resizable=1;rotatable=1;deletable=1;editable=1;locked=0;connectable=1;" parent="1" source="XehK8iCw8c2GX-9HtF_J-1" target="IxeYVvfEa9ugoxdrenE4-31" edge="1">
          <mxGeometry relative="1" as="geometry" />
        </mxCell>
        <mxCell id="XehK8iCw8c2GX-9HtF_J-1" value="&lt;span style=&quot;background-color: rgb(255, 255, 0);&quot;&gt;VirusTotal Api&lt;/span&gt;" style="shape=umlActor;verticalLabelPosition=bottom;verticalAlign=top;html=1;outlineConnect=0;strokeColor=default;align=center;fontFamily=Helvetica;fontSize=12;fontColor=default;fillColor=default;movable=1;resizable=1;rotatable=1;deletable=1;editable=1;locked=0;connectable=1;" parent="1" vertex="1">
          <mxGeometry x="770" y="690" width="30" height="60" as="geometry" />
        </mxCell>
        <mxCell id="XehK8iCw8c2GX-9HtF_J-4" value="" style="endArrow=classic;html=1;rounded=0;exitX=0.5;exitY=0.5;exitDx=0;exitDy=0;exitPerimeter=0;entryX=0;entryY=0.5;entryDx=0;entryDy=0;edgeStyle=orthogonalEdgeStyle;" parent="1" source="V5mKhU4Q77wbRNJmn_iB-1" target="V5mKhU4Q77wbRNJmn_iB-5" edge="1">
          <mxGeometry width="50" height="50" relative="1" as="geometry">
            <mxPoint x="10" y="450" as="sourcePoint" />
            <mxPoint x="60" y="400" as="targetPoint" />
            <Array as="points">
              <mxPoint x="-20" y="468" />
              <mxPoint x="-20" y="515" />
            </Array>
          </mxGeometry>
        </mxCell>
        <mxCell id="IxeYVvfEa9ugoxdrenE4-2" style="edgeStyle=orthogonalEdgeStyle;rounded=0;orthogonalLoop=1;jettySize=auto;html=1;entryX=0.5;entryY=0;entryDx=0;entryDy=0;" parent="1" source="hkblePiAYzYZpkcJ5FMe-1" target="V5mKhU4Q77wbRNJmn_iB-38" edge="1">
          <mxGeometry relative="1" as="geometry">
            <Array as="points">
              <mxPoint x="490" y="310" />
            </Array>
          </mxGeometry>
        </mxCell>
        <mxCell id="IxeYVvfEa9ugoxdrenE4-3" value="&amp;lt;include&amp;gt;" style="edgeLabel;html=1;align=center;verticalAlign=middle;resizable=0;points=[];" parent="IxeYVvfEa9ugoxdrenE4-2" vertex="1" connectable="0">
          <mxGeometry x="0.1704" y="-1" relative="1" as="geometry">
            <mxPoint as="offset" />
          </mxGeometry>
        </mxCell>
        <mxCell id="IxeYVvfEa9ugoxdrenE4-4" style="edgeStyle=orthogonalEdgeStyle;rounded=0;orthogonalLoop=1;jettySize=auto;html=1;exitX=0;exitY=0;exitDx=0;exitDy=0;entryX=0.5;entryY=1;entryDx=0;entryDy=0;" parent="1" source="hkblePiAYzYZpkcJ5FMe-1" target="V5mKhU4Q77wbRNJmn_iB-57" edge="1">
          <mxGeometry relative="1" as="geometry" />
        </mxCell>
        <mxCell id="IxeYVvfEa9ugoxdrenE4-5" value="&amp;lt;include&amp;gt;" style="edgeLabel;html=1;align=center;verticalAlign=middle;resizable=0;points=[];" parent="IxeYVvfEa9ugoxdrenE4-4" vertex="1" connectable="0">
          <mxGeometry x="0.7289" y="-2" relative="1" as="geometry">
            <mxPoint x="48" y="16" as="offset" />
          </mxGeometry>
        </mxCell>
        <mxCell id="hkblePiAYzYZpkcJ5FMe-1" value="דוחות וגרפים" style="ellipse;whiteSpace=wrap;html=1;" parent="1" vertex="1">
          <mxGeometry x="300" y="285" width="80" height="50" as="geometry" />
        </mxCell>
        <mxCell id="IxeYVvfEa9ugoxdrenE4-22" value="" style="endArrow=classic;html=1;rounded=0;exitX=0.5;exitY=0.5;exitDx=0;exitDy=0;exitPerimeter=0;entryX=0;entryY=0.5;entryDx=0;entryDy=0;edgeStyle=orthogonalEdgeStyle;" parent="1" source="V5mKhU4Q77wbRNJmn_iB-1" target="IxeYVvfEa9ugoxdrenE4-21" edge="1">
          <mxGeometry width="50" height="50" relative="1" as="geometry">
            <mxPoint x="360" y="650" as="sourcePoint" />
            <mxPoint x="410" y="600" as="targetPoint" />
            <Array as="points">
              <mxPoint x="-20" y="467" />
              <mxPoint x="-20" y="715" />
            </Array>
          </mxGeometry>
        </mxCell>
        <mxCell id="IxeYVvfEa9ugoxdrenE4-24" value="" style="endArrow=classic;html=1;rounded=0;exitX=0.5;exitY=0.5;exitDx=0;exitDy=0;exitPerimeter=0;entryX=0;entryY=0.5;entryDx=0;entryDy=0;edgeStyle=orthogonalEdgeStyle;" parent="1" source="V5mKhU4Q77wbRNJmn_iB-1" target="V5mKhU4Q77wbRNJmn_iB-68" edge="1">
          <mxGeometry width="50" height="50" relative="1" as="geometry">
            <mxPoint x="360" y="550" as="sourcePoint" />
            <mxPoint x="410" y="500" as="targetPoint" />
            <Array as="points">
              <mxPoint x="-20" y="468" />
              <mxPoint x="-20" y="310" />
            </Array>
          </mxGeometry>
        </mxCell>
        <mxCell id="IxeYVvfEa9ugoxdrenE4-36" value="" style="endArrow=classic;html=1;rounded=0;exitX=0.5;exitY=1;exitDx=0;exitDy=0;entryX=1;entryY=0.5;entryDx=0;entryDy=0;edgeStyle=orthogonalEdgeStyle;" parent="1" source="V5mKhU4Q77wbRNJmn_iB-41" target="V5mKhU4Q77wbRNJmn_iB-36" edge="1">
          <mxGeometry width="50" height="50" relative="1" as="geometry">
            <mxPoint x="615" y="440" as="sourcePoint" />
            <mxPoint x="665" y="390" as="targetPoint" />
          </mxGeometry>
        </mxCell>
        <mxCell id="IxeYVvfEa9ugoxdrenE4-37" value="&amp;lt;include&amp;gt;" style="edgeLabel;html=1;align=center;verticalAlign=middle;resizable=0;points=[];" parent="IxeYVvfEa9ugoxdrenE4-36" vertex="1" connectable="0">
          <mxGeometry x="0.1063" y="2" relative="1" as="geometry">
            <mxPoint as="offset" />
          </mxGeometry>
        </mxCell>
        <mxCell id="IxeYVvfEa9ugoxdrenE4-38" value="" style="endArrow=classic;html=1;rounded=0;exitX=0;exitY=0.5;exitDx=0;exitDy=0;entryX=1;entryY=1;entryDx=0;entryDy=0;edgeStyle=orthogonalEdgeStyle;" parent="1" source="V5mKhU4Q77wbRNJmn_iB-43" target="V5mKhU4Q77wbRNJmn_iB-57" edge="1">
          <mxGeometry width="50" height="50" relative="1" as="geometry">
            <mxPoint x="360" y="350" as="sourcePoint" />
            <mxPoint x="410" y="300" as="targetPoint" />
          </mxGeometry>
        </mxCell>
        <mxCell id="IxeYVvfEa9ugoxdrenE4-39" value="&amp;lt;include&amp;gt;" style="edgeLabel;html=1;align=center;verticalAlign=middle;resizable=0;points=[];" parent="IxeYVvfEa9ugoxdrenE4-38" vertex="1" connectable="0">
          <mxGeometry x="-0.1586" y="-2" relative="1" as="geometry">
            <mxPoint as="offset" />
          </mxGeometry>
        </mxCell>
        <mxCell id="IxeYVvfEa9ugoxdrenE4-42" style="edgeStyle=orthogonalEdgeStyle;rounded=0;orthogonalLoop=1;jettySize=auto;html=1;entryX=1;entryY=0;entryDx=0;entryDy=0;" parent="1" source="IxeYVvfEa9ugoxdrenE4-41" target="V5mKhU4Q77wbRNJmn_iB-68" edge="1">
          <mxGeometry relative="1" as="geometry" />
        </mxCell>
        <mxCell id="IxeYVvfEa9ugoxdrenE4-44" value="&lt;span style=&quot;font-size: 12px;&quot;&gt;&amp;lt;include&amp;gt;&lt;/span&gt;" style="edgeLabel;html=1;align=center;verticalAlign=middle;resizable=0;points=[];" parent="IxeYVvfEa9ugoxdrenE4-42" vertex="1" connectable="0">
          <mxGeometry x="-0.1766" y="-2" relative="1" as="geometry">
            <mxPoint x="134" y="2" as="offset" />
          </mxGeometry>
        </mxCell>
        <mxCell id="IxeYVvfEa9ugoxdrenE4-41" value="התחברות לשרת המערכת" style="ellipse;whiteSpace=wrap;html=1;" parent="1" vertex="1">
          <mxGeometry x="570" y="135" width="120" height="40" as="geometry" />
        </mxCell>
        <mxCell id="vvbEv_X70nuwLvF6H0fc-2" value="" style="swimlane;startSize=0;container=1;comic=0;enumerate=0;" parent="1" vertex="1">
          <mxGeometry x="-60" y="90" width="790" height="730" as="geometry" />
        </mxCell>
        <mxCell id="IxeYVvfEa9ugoxdrenE4-21" value="בדיקות אבטחת מכונה" style="ellipse;whiteSpace=wrap;html=1;movable=1;resizable=1;rotatable=1;deletable=1;editable=1;locked=0;connectable=1;" parent="vvbEv_X70nuwLvF6H0fc-2" vertex="1">
          <mxGeometry x="70" y="610" width="120" height="30" as="geometry" />
        </mxCell>
        <mxCell id="IxeYVvfEa9ugoxdrenE4-26" value="בדיקת קבצים" style="ellipse;whiteSpace=wrap;html=1;movable=1;resizable=1;rotatable=1;deletable=1;editable=1;locked=0;connectable=1;" parent="vvbEv_X70nuwLvF6H0fc-2" vertex="1">
          <mxGeometry x="220" y="670" width="120" height="40" as="geometry" />
        </mxCell>
        <mxCell id="IxeYVvfEa9ugoxdrenE4-25" value="בדיקת הייפר קישורים" style="ellipse;whiteSpace=wrap;html=1;movable=1;resizable=1;rotatable=1;deletable=1;editable=1;locked=0;connectable=1;" parent="vvbEv_X70nuwLvF6H0fc-2" vertex="1">
          <mxGeometry x="220" y="550" width="120" height="40" as="geometry" />
        </mxCell>
        <mxCell id="IxeYVvfEa9ugoxdrenE4-27" style="edgeStyle=orthogonalEdgeStyle;rounded=0;orthogonalLoop=1;jettySize=auto;html=1;exitX=0;exitY=0.5;exitDx=0;exitDy=0;entryX=0.5;entryY=0;entryDx=0;entryDy=0;movable=1;resizable=1;rotatable=1;deletable=1;editable=1;locked=0;connectable=1;" parent="vvbEv_X70nuwLvF6H0fc-2" source="IxeYVvfEa9ugoxdrenE4-25" target="IxeYVvfEa9ugoxdrenE4-21" edge="1">
          <mxGeometry relative="1" as="geometry">
            <Array as="points">
              <mxPoint x="130" y="570" />
            </Array>
          </mxGeometry>
        </mxCell>
        <mxCell id="IxeYVvfEa9ugoxdrenE4-28" value="&amp;lt;include&amp;gt;" style="edgeLabel;html=1;align=center;verticalAlign=middle;resizable=1;points=[];movable=1;rotatable=1;deletable=1;editable=1;locked=0;connectable=1;" parent="IxeYVvfEa9ugoxdrenE4-27" vertex="1" connectable="0">
          <mxGeometry x="0.1423" y="-1" relative="1" as="geometry">
            <mxPoint x="11" y="1" as="offset" />
          </mxGeometry>
        </mxCell>
        <mxCell id="IxeYVvfEa9ugoxdrenE4-31" value="תקשורת עם ויירוס תותל לשם ביצוע בדיקות אבטחה" style="ellipse;whiteSpace=wrap;html=1;movable=1;resizable=1;rotatable=1;deletable=1;editable=1;locked=0;connectable=1;" parent="vvbEv_X70nuwLvF6H0fc-2" vertex="1">
          <mxGeometry x="550" y="595" width="120" height="70" as="geometry" />
        </mxCell>
        <mxCell id="IxeYVvfEa9ugoxdrenE4-32" style="edgeStyle=orthogonalEdgeStyle;rounded=0;orthogonalLoop=1;jettySize=auto;html=1;entryX=1;entryY=0.5;entryDx=0;entryDy=0;movable=1;resizable=1;rotatable=1;deletable=1;editable=1;locked=0;connectable=1;" parent="vvbEv_X70nuwLvF6H0fc-2" source="IxeYVvfEa9ugoxdrenE4-31" target="IxeYVvfEa9ugoxdrenE4-25" edge="1">
          <mxGeometry relative="1" as="geometry" />
        </mxCell>
        <mxCell id="IxeYVvfEa9ugoxdrenE4-33" style="edgeStyle=orthogonalEdgeStyle;rounded=0;orthogonalLoop=1;jettySize=auto;html=1;entryX=1;entryY=0.5;entryDx=0;entryDy=0;movable=1;resizable=1;rotatable=1;deletable=1;editable=1;locked=0;connectable=1;" parent="vvbEv_X70nuwLvF6H0fc-2" source="IxeYVvfEa9ugoxdrenE4-31" target="IxeYVvfEa9ugoxdrenE4-26" edge="1">
          <mxGeometry relative="1" as="geometry" />
        </mxCell>
        <mxCell id="IxeYVvfEa9ugoxdrenE4-34" value="&amp;lt;include&amp;gt;" style="edgeLabel;html=1;align=center;verticalAlign=middle;resizable=1;points=[];movable=1;rotatable=1;deletable=1;editable=1;locked=0;connectable=1;" parent="IxeYVvfEa9ugoxdrenE4-33" vertex="1" connectable="0">
          <mxGeometry x="-0.7108" relative="1" as="geometry">
            <mxPoint as="offset" />
          </mxGeometry>
        </mxCell>
        <mxCell id="JMTlj7d5UthQ9-HzTU3F-2" value="אימות כתובת אימייל" style="ellipse;whiteSpace=wrap;html=1;" parent="vvbEv_X70nuwLvF6H0fc-2" vertex="1">
          <mxGeometry x="400" y="450" width="100" height="60" as="geometry" />
        </mxCell>
        <mxCell id="JMTlj7d5UthQ9-HzTU3F-5" value="" style="endArrow=classic;html=1;rounded=0;exitX=0;exitY=0.5;exitDx=0;exitDy=0;entryX=0.5;entryY=1;entryDx=0;entryDy=0;edgeStyle=orthogonalEdgeStyle;" parent="vvbEv_X70nuwLvF6H0fc-2" source="IxeYVvfEa9ugoxdrenE4-26" target="IxeYVvfEa9ugoxdrenE4-21" edge="1">
          <mxGeometry width="50" height="50" relative="1" as="geometry">
            <mxPoint x="370" y="460" as="sourcePoint" />
            <mxPoint x="420" y="410" as="targetPoint" />
          </mxGeometry>
        </mxCell>
        <mxCell id="JMTlj7d5UthQ9-HzTU3F-6" value="&amp;lt;include&amp;gt;" style="edgeLabel;html=1;align=center;verticalAlign=middle;resizable=0;points=[];" parent="JMTlj7d5UthQ9-HzTU3F-5" vertex="1" connectable="0">
          <mxGeometry x="-0.3101" y="3" relative="1" as="geometry">
            <mxPoint as="offset" />
          </mxGeometry>
        </mxCell>
        <mxCell id="JMTlj7d5UthQ9-HzTU3F-3" value="" style="edgeStyle=orthogonalEdgeStyle;rounded=0;orthogonalLoop=1;jettySize=auto;html=1;" parent="1" source="JMTlj7d5UthQ9-HzTU3F-2" target="V5mKhU4Q77wbRNJmn_iB-30" edge="1">
          <mxGeometry relative="1" as="geometry" />
        </mxCell>
        <mxCell id="JMTlj7d5UthQ9-HzTU3F-4" value="&amp;lt;include&amp;gt;" style="edgeLabel;html=1;align=center;verticalAlign=middle;resizable=0;points=[];" parent="JMTlj7d5UthQ9-HzTU3F-3" vertex="1" connectable="0">
          <mxGeometry x="-0.1563" relative="1" as="geometry">
            <mxPoint as="offset" />
          </mxGeometry>
        </mxCell>
      </root>
    </mxGraphModel>
  </diagram>
</mxfile>
